<svg width="256" height="64" viewBox="0 0 256 64" fill="none" xmlns="http://www.w3.org/2000/svg">
<path d="M91.096 44V18.44H94.984V42.56L92.932 40.436H107.44V44H91.096ZM118.271 44.432C116.4 44.432 114.78 44.024 113.412 43.208C112.068 42.392 111.024 41.228 110.28 39.716C109.56 38.204 109.2 36.44 109.2 34.424C109.2 32.408 109.56 30.656 110.28 29.168C111.024 27.656 112.068 26.492 113.412 25.676C114.756 24.836 116.34 24.416 118.164 24.416C119.892 24.416 121.416 24.824 122.736 25.64C124.056 26.432 125.076 27.584 125.796 29.096C126.54 30.608 126.912 32.432 126.912 34.568V35.54H113.16C113.256 37.412 113.748 38.816 114.636 39.752C115.548 40.688 116.772 41.156 118.308 41.156C119.436 41.156 120.372 40.892 121.116 40.364C121.86 39.836 122.376 39.128 122.664 38.24L126.624 38.492C126.12 40.268 125.124 41.708 123.636 42.812C122.172 43.892 120.384 44.432 118.271 44.432ZM113.16 32.66H122.88C122.76 30.956 122.268 29.696 121.404 28.88C120.564 28.064 119.484 27.656 118.164 27.656C116.796 27.656 115.668 28.088 114.78 28.952C113.916 29.792 113.376 31.028 113.16 32.66ZM136.529 44.432C134.537 44.432 132.941 43.976 131.741 43.064C130.565 42.152 129.977 40.868 129.977 39.212C129.977 37.556 130.469 36.272 131.453 35.36C132.461 34.424 134.009 33.752 136.097 33.344L142.685 32.084C142.685 30.596 142.337 29.492 141.641 28.772C140.945 28.028 139.913 27.656 138.545 27.656C137.321 27.656 136.361 27.932 135.665 28.484C134.969 29.012 134.489 29.804 134.225 30.86L130.301 30.608C130.661 28.688 131.549 27.176 132.965 26.072C134.405 24.968 136.265 24.416 138.545 24.416C141.137 24.416 143.105 25.112 144.449 26.504C145.817 27.872 146.501 29.804 146.501 32.3V39.752C146.501 40.208 146.573 40.532 146.717 40.724C146.885 40.892 147.149 40.976 147.509 40.976H148.193V44C148.073 44.024 147.881 44.048 147.617 44.072C147.353 44.096 147.077 44.108 146.789 44.108C145.973 44.108 145.265 43.976 144.665 43.712C144.089 43.448 143.657 43.016 143.369 42.416C143.081 41.792 142.937 40.964 142.937 39.932L143.333 40.112C143.141 40.952 142.721 41.696 142.073 42.344C141.449 42.992 140.645 43.508 139.661 43.892C138.701 44.252 137.657 44.432 136.529 44.432ZM137.141 41.408C138.293 41.408 139.277 41.192 140.093 40.76C140.909 40.304 141.545 39.68 142.001 38.888C142.457 38.096 142.685 37.196 142.685 36.188V34.964L137.069 36.044C135.917 36.26 135.101 36.608 134.621 37.088C134.165 37.544 133.937 38.132 133.937 38.852C133.937 39.668 134.213 40.304 134.765 40.76C135.341 41.192 136.133 41.408 137.141 41.408ZM151.415 44V24.848H154.907L155.051 29.96L154.583 29.708C154.799 28.46 155.207 27.452 155.807 26.684C156.407 25.916 157.139 25.352 158.003 24.992C158.867 24.608 159.803 24.416 160.811 24.416C162.251 24.416 163.439 24.74 164.375 25.388C165.335 26.012 166.055 26.876 166.535 27.98C167.039 29.06 167.291 30.296 167.291 31.688V44H163.475V32.84C163.475 31.712 163.355 30.764 163.115 29.996C162.875 29.228 162.479 28.64 161.927 28.232C161.375 27.824 160.655 27.62 159.767 27.62C158.423 27.62 157.331 28.064 156.491 28.952C155.651 29.84 155.231 31.136 155.231 32.84V44H151.415ZM183.232 44.576C180.928 44.576 178.9 44.048 177.148 42.992C175.396 41.912 174.028 40.376 173.044 38.384C172.06 36.392 171.568 34.016 171.568 31.256C171.568 28.52 172.048 26.156 173.008 24.164C173.992 22.148 175.36 20.6 177.112 19.52C178.864 18.416 180.916 17.864 183.268 17.864C186.436 17.864 188.896 18.656 190.648 20.24C192.4 21.824 193.54 24.02 194.068 26.828L190 27.044C189.664 25.292 188.944 23.924 187.84 22.94C186.736 21.932 185.212 21.428 183.268 21.428C181.708 21.428 180.352 21.824 179.2 22.616C178.072 23.408 177.184 24.536 176.536 26C175.912 27.464 175.6 29.216 175.6 31.256C175.6 33.296 175.912 35.048 176.536 36.512C177.184 37.976 178.084 39.092 179.236 39.86C180.388 40.628 181.72 41.012 183.232 41.012C185.296 41.012 186.892 40.472 188.02 39.392C189.172 38.288 189.892 36.776 190.18 34.856L194.248 35.072C193.936 37.016 193.312 38.696 192.376 40.112C191.44 41.528 190.204 42.632 188.668 43.424C187.132 44.192 185.32 44.576 183.232 44.576ZM198.639 44V18.44H208.179C211.107 18.44 213.387 19.148 215.019 20.564C216.651 21.956 217.467 23.9 217.467 26.396C217.467 28.052 217.095 29.492 216.351 30.716C215.607 31.916 214.539 32.84 213.147 33.488C211.779 34.112 210.123 34.424 208.179 34.424H202.527V44H198.639ZM202.527 30.896H208.071C209.823 30.896 211.155 30.524 212.067 29.78C212.979 29.012 213.435 27.884 213.435 26.396C213.435 24.932 212.979 23.84 212.067 23.12C211.155 22.376 209.823 22.004 208.071 22.004H202.527V30.896ZM221.596 44V18.44H226.924L234.52 39.428L242.116 18.44H247.444V44H243.556V25.28L236.68 43.964H232.36L225.484 25.28V44H221.596Z" fill="black"/>
<path d="M0 32L24 8L48 32L24 56L0 32Z" fill="url(#paint0_linear_1520_10566)"/>
<path d="M32 32L56 8L80 32L56 56L32 32Z" fill="url(#paint1_linear_1520_10566)"/>
<defs>
<linearGradient id="paint0_linear_1520_10566" x1="2.5" y1="33.5" x2="24" y2="56" gradientUnits="userSpaceOnUse">
<stop stop-color="#1CAA50"/>
<stop offset="1" stop-color="#41D376"/>
</linearGradient>
<linearGradient id="paint1_linear_1520_10566" x1="56" y1="8" x2="56" y2="56" gradientUnits="userSpaceOnUse">
<stop stop-color="#18DF96"/>
<stop offset="1" stop-color="#158643"/>
</linearGradient>
</defs>
</svg>
